# xmcd
#
# Track frame offsets:
#	150
#	15288
#	29928
#	46685
#	59968
#	72583
#	87485
#	100117
#	113374
#	124970
#	141311
#	157166
#	158139
#	174256
#	191929
#
# Disc length: 2758 seconds
#
# Revision: 1
# Processed by: cddbd v1.5.2PL0 Copyright (c) Steve Scherf et al.
# Submitted via: audiograbber 1.83.01
#
DISCID=d80ac40f
DTITLE=Various Artist - Hillcrest #35
DYEAR=1900
DGENRE=Country
TTITLE0=Bubba Brown - The Son I Used To Be
TTITLE1=Lonnie Spiker - I've Got Some Hurtin' To Do
TTITLE2=Nicki Gillis - Remember Me
TTITLE3=Darnell Miller - I Wish You Had Lied
TTITLE4=Jean Stafford - Don't Bet Your Boots
TTITLE5=Michael Fix - Something's Cooking
TTITLE6=Marcus Meier - Matilda Road
TTITLE7=Ann Pascoe - Cryin' For Their Mamas
TTITLE8=Trevor V. Stevens - Fireman
TTITLE9=Nellie Donovan - Sing Me An Angel
TTITLE10=Robert Mizzell - Don't Wake Me Up
TTITLE11=Clelia Adams - Radio Liner
TTITLE12=Clelia Adams - Half As Much
TTITLE13=Cowpoke - Fool
TTITLE14=Miss Jeanie - Blue Monday
EXTD=
EXTT0=
EXTT1=
EXTT2=
EXTT3=
EXTT4=
EXTT5=
EXTT6=
EXTT7=
EXTT8=
EXTT9=
EXTT10=
EXTT11=
EXTT12=
EXTT13=
EXTT14=
PLAYORDER=
